HIERARCHY
ROOT mixamorig:Hips
{
	OFFSET -0.000008 104.274872 1.554316
	CHANNELS 6 Xposition Yposition Zposition Xrotation Yrotation Zrotation
	JOINT mixamorig:Spine
	{
		OFFSET -0.000005 10.181595 0.131519
		CHANNELS 6 Xposition Yposition Zposition Xrotation Yrotation Zrotation
		JOINT mixamorig:Spine1
		{
			OFFSET -0.000000 9.893959 -1.470707
			CHANNELS 6 Xposition Yposition Zposition Xrotation Yrotation Zrotation
			JOINT mixamorig:Spine2
			{
				OFFSET -0.000000 9.220757 -1.370641
				CHANNELS 6 Xposition Yposition Zposition Xrotation Yrotation Zrotation
				JOINT mixamorig:Neck
				{
					OFFSET 0.000001 16.740417 -2.049036
					CHANNELS 6 Xposition Yposition Zposition Xrotation Yrotation Zrotation
					JOINT mixamorig:Head
					{
						OFFSET 0.000000 9.617874 1.685006
						CHANNELS 6 Xposition Yposition Zposition Xrotation Yrotation Zrotation
						JOINT mixamorig:HeadTop_End
						{
							OFFSET 0.000002 22.037354 7.501101
							CHANNELS 6 Xposition Yposition Zposition Xrotation Yrotation Zrotation
							End Site
							{
								OFFSET 0.000168 2310.654297 -282.823242
							}
						}
					}
				}
				JOINT mixamorig:RightShoulder
				{
					OFFSET -4.569970 11.014908 -2.160885
					CHANNELS 6 Xposition Yposition Zposition Xrotation Yrotation Zrotation
					JOINT mixamorig:RightArm
					{
						OFFSET -10.592851 -0.524811 -2.232101
						CHANNELS 6 Xposition Yposition Zposition Xrotation Yrotation Zrotation
						JOINT mixamorig:RightForeArm
						{
							OFFSET -27.841511 0.000031 -0.000004
							CHANNELS 6 Xposition Yposition Zposition Xrotation Yrotation Zrotation
							JOINT mixamorig:RightHand
							{
								OFFSET -28.328831 -0.000015 0.000015
								CHANNELS 6 Xposition Yposition Zposition Xrotation Yrotation Zrotation
								JOINT mixamorig:RightHandThumb1
								{
									OFFSET -2.464806 -1.573990 2.681852
									CHANNELS 6 Xposition Yposition Zposition Xrotation Yrotation Zrotation
									JOINT mixamorig:RightHandThumb2
									{
										OFFSET -3.215179 -1.872803 1.924282
										CHANNELS 6 Xposition Yposition Zposition Xrotation Yrotation Zrotation
										JOINT mixamorig:RightHandThumb3
										{
											OFFSET -2.654831 -1.527969 1.512609
											CHANNELS 6 Xposition Yposition Zposition Xrotation Yrotation Zrotation
											JOINT mixamorig:RightHandThumb4
											{
												OFFSET -2.018814 -1.152008 1.108052
												CHANNELS 6 Xposition Yposition Zposition Xrotation Yrotation Zrotation
												End Site
												{
													OFFSET -188.809540 -114.533607 132.431396
												}
											}
										}
									}
								}
								JOINT mixamorig:RightHandIndex1
								{
									OFFSET -9.108284 -0.517868 2.259835
									CHANNELS 6 Xposition Yposition Zposition Xrotation Yrotation Zrotation
									JOINT mixamorig:RightHandIndex2
									{
										OFFSET -3.699989 0.000000 0.001215
										CHANNELS 6 Xposition Yposition Zposition Xrotation Yrotation Zrotation
										JOINT mixamorig:RightHandIndex3
										{
											OFFSET -2.850006 0.000031 -0.000522
											CHANNELS 6 Xposition Yposition Zposition Xrotation Yrotation Zrotation
											JOINT mixamorig:RightHandIndex4
											{
												OFFSET -2.772186 -0.000015 -0.000020
												CHANNELS 6 Xposition Yposition Zposition Xrotation Yrotation Zrotation
												End Site
												{
													OFFSET -277.218445 0.000000 -0.050231
												}
											}
										}
									}
								}
								JOINT mixamorig:RightHandMiddle1
								{
									OFFSET -9.532516 -0.000031 -0.000023
									CHANNELS 6 Xposition Yposition Zposition Xrotation Yrotation Zrotation
									JOINT mixamorig:RightHandMiddle2
									{
										OFFSET -3.700005 -0.000015 0.003713
										CHANNELS 6 Xposition Yposition Zposition Xrotation Yrotation Zrotation
										JOINT mixamorig:RightHandMiddle3
										{
											OFFSET -2.949974 0.000015 -0.002054
											CHANNELS 6 Xposition Yposition Zposition Xrotation Yrotation Zrotation
											JOINT mixamorig:RightHandMiddle4
											{
												OFFSET -2.946640 0.000000 -0.000156
												CHANNELS 6 Xposition Yposition Zposition Xrotation Yrotation Zrotation
												End Site
												{
													OFFSET -294.664337 0.000000 -0.113670
												}
											}
										}
									}
								}
								JOINT mixamorig:RightHandRing1
								{
									OFFSET -9.103600 -0.043076 -1.865134
									CHANNELS 6 Xposition Yposition Zposition Xrotation Yrotation Zrotation
									JOINT mixamorig:RightHandRing2
									{
										OFFSET -3.379288 0.000000 -0.001055
										CHANNELS 6 Xposition Yposition Zposition Xrotation Yrotation Zrotation
										JOINT mixamorig:RightHandRing3
										{
											OFFSET -2.889687 -0.000015 0.000379
											CHANNELS 6 Xposition Yposition Zposition Xrotation Yrotation Zrotation
											JOINT mixamorig:RightHandRing4
											{
												OFFSET -2.638809 -0.000015 0.000941
												CHANNELS 6 Xposition Yposition Zposition Xrotation Yrotation Zrotation
												End Site
												{
													OFFSET -263.880371 0.000000 0.516020
												}
											}
										}
									}
								}
								JOINT mixamorig:RightHandPinky1
								{
									OFFSET -8.076683 -0.486710 -3.806280
									CHANNELS 6 Xposition Yposition Zposition Xrotation Yrotation Zrotation
									JOINT mixamorig:RightHandPinky2
									{
										OFFSET -3.600014 -0.000015 -0.003747
										CHANNELS 6 Xposition Yposition Zposition Xrotation Yrotation Zrotation
										JOINT mixamorig:RightHandPinky3
										{
											OFFSET -2.099983 0.000000 -0.005739
											CHANNELS 6 Xposition Yposition Zposition Xrotation Yrotation Zrotation
											JOINT mixamorig:RightHandPinky4
											{
												OFFSET -2.115768 -0.000031 -0.003680
												CHANNELS 6 Xposition Yposition Zposition Xrotation Yrotation Zrotation
												End Site
												{
													OFFSET -211.577087 0.000000 -0.350686
												}
											}
										}
									}
								}
							}
						}
					}
				}
				JOINT mixamorig:LeftShoulder
				{
					OFFSET 4.570447 11.014725 -2.160855
					CHANNELS 6 Xposition Yposition Zposition Xrotation Yrotation Zrotation
					JOINT mixamorig:LeftArm
					{
						OFFSET 10.592371 -0.524597 -2.232119
						CHANNELS 6 Xposition Yposition Zposition Xrotation Yrotation Zrotation
						JOINT mixamorig:LeftForeArm
						{
							OFFSET 27.841532 -0.000031 0.000026
							CHANNELS 6 Xposition Yposition Zposition Xrotation Yrotation Zrotation
							JOINT mixamorig:LeftHand
							{
								OFFSET 28.328846 -0.000061 0.000022
								CHANNELS 6 Xposition Yposition Zposition Xrotation Yrotation Zrotation
								JOINT mixamorig:LeftHandThumb1
								{
									OFFSET 2.466141 -1.576172 2.681732
									CHANNELS 6 Xposition Yposition Zposition Xrotation Yrotation Zrotation
									JOINT mixamorig:LeftHandThumb2
									{
										OFFSET 3.217812 -1.872070 1.916482
										CHANNELS 6 Xposition Yposition Zposition Xrotation Yrotation Zrotation
										JOINT mixamorig:LeftHandThumb3
										{
											OFFSET 2.656029 -1.528778 1.514513
											CHANNELS 6 Xposition Yposition Zposition Xrotation Yrotation Zrotation
											JOINT mixamorig:LeftHandThumb4
											{
												OFFSET 2.020889 -1.154053 1.115139
												CHANNELS 6 Xposition Yposition Zposition Xrotation Yrotation Zrotation
												End Site
												{
													OFFSET 190.885437 -115.081749 130.048782
												}
											}
										}
									}
								}
								JOINT mixamorig:LeftHandIndex1
								{
									OFFSET 9.109314 -0.518021 2.259871
									CHANNELS 6 Xposition Yposition Zposition Xrotation Yrotation Zrotation
									JOINT mixamorig:LeftHandIndex2
									{
										OFFSET 3.699989 0.000000 -0.000322
										CHANNELS 6 Xposition Yposition Zposition Xrotation Yrotation Zrotation
										JOINT mixamorig:LeftHandIndex3
										{
											OFFSET 2.850006 0.000000 0.000352
											CHANNELS 6 Xposition Yposition Zposition Xrotation Yrotation Zrotation
											JOINT mixamorig:LeftHandIndex4
											{
												OFFSET 2.774864 -0.000031 -0.000027
												CHANNELS 6 Xposition Yposition Zposition Xrotation Yrotation Zrotation
												End Site
												{
													OFFSET 277.486267 0.000000 -0.009857
												}
											}
										}
									}
								}
								JOINT mixamorig:LeftHandMiddle1
								{
									OFFSET 9.533394 0.000061 0.000044
									CHANNELS 6 Xposition Yposition Zposition Xrotation Yrotation Zrotation
									JOINT mixamorig:LeftHandMiddle2
									{
										OFFSET 3.699989 -0.000015 -0.000231
										CHANNELS 6 Xposition Yposition Zposition Xrotation Yrotation Zrotation
										JOINT mixamorig:LeftHandMiddle3
										{
											OFFSET 2.949997 -0.000015 -0.000059
											CHANNELS 6 Xposition Yposition Zposition Xrotation Yrotation Zrotation
											JOINT mixamorig:LeftHandMiddle4
											{
												OFFSET 2.952896 0.000031 0.000063
												CHANNELS 6 Xposition Yposition Zposition Xrotation Yrotation Zrotation
												End Site
												{
													OFFSET 295.289337 0.000000 0.022810
												}
											}
										}
									}
								}
								JOINT mixamorig:LeftHandRing1
								{
									OFFSET 9.104523 -0.042999 -1.865074
									CHANNELS 6 Xposition Yposition Zposition Xrotation Yrotation Zrotation
									JOINT mixamorig:LeftHandRing2
									{
										OFFSET 3.150009 -0.000031 0.000043
										CHANNELS 6 Xposition Yposition Zposition Xrotation Yrotation Zrotation
										JOINT mixamorig:LeftHandRing3
										{
											OFFSET 2.949982 -0.000015 0.000040
											CHANNELS 6 Xposition Yposition Zposition Xrotation Yrotation Zrotation
											JOINT mixamorig:LeftHandRing4
											{
												OFFSET 2.644348 0.000000 0.000057
												CHANNELS 6 Xposition Yposition Zposition Xrotation Yrotation Zrotation
												End Site
												{
													OFFSET 264.434631 0.000000 0.012105
												}
											}
										}
									}
								}
								JOINT mixamorig:LeftHandPinky1
								{
									OFFSET 8.077789 -0.486847 -3.806259
									CHANNELS 6 Xposition Yposition Zposition Xrotation Yrotation Zrotation
									JOINT mixamorig:LeftHandPinky2
									{
										OFFSET 3.599953 0.000031 0.014727
										CHANNELS 6 Xposition Yposition Zposition Xrotation Yrotation Zrotation
										JOINT mixamorig:LeftHandPinky3
										{
											OFFSET 2.100021 0.000015 0.007705
											CHANNELS 6 Xposition Yposition Zposition Xrotation Yrotation Zrotation
											JOINT mixamorig:LeftHandPinky4
											{
												OFFSET 2.125504 0.000031 0.007517
												CHANNELS 6 Xposition Yposition Zposition Xrotation Yrotation Zrotation
												End Site
												{
													OFFSET 212.550781 0.000000 0.625752
												}
											}
										}
									}
								}
							}
						}
					}
				}
			}
		}
	}
	JOINT mixamorig:RightUpLeg
	{
		OFFSET -8.207787 -6.751648 -1.599560
		CHANNELS 6 Xposition Yposition Zposition Xrotation Yrotation Zrotation
		JOINT mixamorig:RightLeg
		{
			OFFSET -0.000002 -44.370117 0.345942
			CHANNELS 6 Xposition Yposition Zposition Xrotation Yrotation Zrotation
			JOINT mixamorig:RightFoot
			{
				OFFSET 0.000003 -44.423679 -3.043532
				CHANNELS 6 Xposition Yposition Zposition Xrotation Yrotation Zrotation
				JOINT mixamorig:RightToeBase
				{
					OFFSET -0.000002 -8.728671 10.710558
					CHANNELS 6 Xposition Yposition Zposition Xrotation Yrotation Zrotation
					JOINT mixamorig:RightToe_End
					{
						OFFSET -0.000001 -0.000679 9.278119
						CHANNELS 6 Xposition Yposition Zposition Xrotation Yrotation Zrotation
						End Site
						{
							OFFSET 0.000000 -0.067690 927.812134
						}
					}
				}
			}
		}
	}
	JOINT mixamorig:LeftUpLeg
	{
		OFFSET 8.207793 -6.751686 -1.599556
		CHANNELS 6 Xposition Yposition Zposition Xrotation Yrotation Zrotation
		JOINT mixamorig:LeftLeg
		{
			OFFSET -0.000004 -44.370014 0.346954
			CHANNELS 6 Xposition Yposition Zposition Xrotation Yrotation Zrotation
			JOINT mixamorig:LeftFoot
			{
				OFFSET -0.000001 -44.423672 -3.044401
				CHANNELS 6 Xposition Yposition Zposition Xrotation Yrotation Zrotation
				JOINT mixamorig:LeftToeBase
				{
					OFFSET -0.000002 -8.728669 10.710558
					CHANNELS 6 Xposition Yposition Zposition Xrotation Yrotation Zrotation
					JOINT mixamorig:LeftToe_End
					{
						OFFSET -0.000003 -0.000679 9.278133
						CHANNELS 6 Xposition Yposition Zposition Xrotation Yrotation Zrotation
						End Site
						{
							OFFSET 0.000000 -0.068021 927.813477
						}
					}
				}
			}
		}
	}
}
MOTION
Frames: 3
Frame Time: 0.033333
0.000006 104.270477 1.554256 0.000010 0.000003 -0.000113 -0.000005 10.181587 0.131522 0.000001 -0.000003 0.000084 -0.000000 9.893967 -1.470711 0.000001 0.000000 -0.000000 -0.000000 9.220802 -1.370642 0.000000 -0.000000 -0.000000 0.000001 16.740433 -2.049030 0.000000 -0.000000 -0.000000 0.000000 9.617859 1.685014 0.000000 0.000000 0.000000 0.000002 22.037384 7.501101 0.000000 -0.000000 0.000000 -4.569968 11.014880 -2.160881 0.000008 0.000001 -0.000038 -10.592849 -0.524806 -2.231820 76.416997 44.446005 -35.656009 -27.841505 0.000003 0.000561 -40.319515 105.360333 51.429231 -28.328831 0.000017 0.000019 -0.000323 -0.000046 0.000011 -2.464397 -1.573774 2.682312 -48.887724 -159.426997 -12.598824 -3.215248 -1.872532 1.924615 147.773192 33.167846 25.190506 -2.654953 -1.527888 1.513052 149.105529 27.757674 -25.792560 -2.018834 -1.152012 1.108051 -0.000001 0.000001 0.000002 -9.108375 -0.517551 2.260162 108.710807 13.867208 -19.312882 -3.700063 0.000299 0.001558 108.646644 10.830276 -15.011120 -2.850059 0.000373 -0.000207 108.032173 8.387106 -11.531022 -2.772166 -0.000001 -0.000014 0.000003 -0.000000 -0.000002 -9.532578 0.000283 0.000297 106.934043 12.459687 -16.948945 -3.700041 0.000345 0.004033 108.425503 9.358563 -12.828239 -2.950053 0.000357 -0.001754 108.159973 8.931819 -12.297738 -2.946625 0.000015 -0.000162 -0.000001 0.000000 0.000000 -9.103685 -0.042747 -1.864788 107.294847 14.633504 -19.733446 -3.379320 0.000314 -0.000731 111.488905 8.520291 -12.509786 -2.889739 0.000329 0.000724 115.228310 7.047263 -11.162385 -2.638818 -0.000017 0.000943 0.000000 -0.000001 0.000001 -8.076752 -0.486399 -3.805964 98.913837 19.164609 -22.151068 -3.600037 0.000284 -0.003456 101.201786 8.592253 -10.018568 -2.100011 0.000327 -0.005441 103.070922 4.639575 -5.565989 -2.115783 -0.000043 -0.003682 -0.000001 -0.000002 -0.000006 4.570446 11.014691 -2.160851 -0.000018 0.000010 -0.000021 10.592510 -0.524553 -2.232380 56.120089 -64.858452 37.419314 27.841740 -0.000076 -0.000114 245.049593 -78.355500 256.085840 28.328835 -0.000028 0.000015 0.000021 -0.000090 -0.000001 2.466182 -1.576125 2.681889 50.059256 135.013661 -112.077414 3.217817 -1.872001 1.916545 90.656793 137.480657 -141.432713 2.656055 -1.528768 1.514614 111.179859 155.929804 -156.902108 2.020895 -1.154073 1.115154 0.000004 -0.000005 0.000001 9.109226 -0.517927 2.260082 98.438660 -136.726317 142.222065 3.700067 0.000151 -0.000432 269.434215 -159.445111 200.375129 2.850048 0.000185 0.000212 264.435965 -168.093196 190.808957 2.774874 -0.000043 -0.000025 0.000001 0.000003 -0.000004 9.533316 0.000139 0.000265 -76.386739 -40.353854 -32.248861 3.700044 0.000224 -0.000399 277.557059 -174.713876 186.029641 2.949970 0.000219 -0.000230 93.566154 8.128845 -8.647078 2.952857 -0.000015 0.000066 -0.000000 0.000002 -0.000003 9.104465 -0.042952 -1.864878 -69.279230 -42.217290 -29.867113 3.149961 0.000318 -0.000126 284.887463 167.844140 164.232554 2.949785 0.000282 -0.000193 104.838336 33.341422 317.476208 2.644340 0.000032 0.000060 0.000001 -0.000001 0.000000 8.077748 -0.486780 -3.806041 -68.686384 -22.042660 344.668039 3.599844 0.000335 0.014545 293.044239 160.951837 151.897260 2.099775 0.000281 0.007524 296.748114 146.499894 128.034792 2.125531 -0.000032 0.007508 -0.000002 -0.000006 -0.000002 -8.207786 -6.751667 -1.599560 -0.077001 -0.000003 0.000080 -0.000002 -44.370110 0.345938 0.153719 -0.000000 -0.000000 0.000000 -44.423679 -3.043532 -0.076700 0.000000 -0.000002 -0.000006 -8.728667 10.710559 -0.000009 -0.000000 -0.000000 -0.000001 -0.000679 9.278123 0.000000 -0.000000 -0.000000 8.207792 -6.751710 -1.599556 -0.074518 -0.000003 0.000081 -0.000002 -44.370014 0.346960 0.148822 0.000002 0.000000 -0.000001 -44.423664 -3.044403 -0.074314 0.000000 -0.000002 -0.000004 -8.728671 10.710558 0.000007 -0.000000 -0.000000 0.000000 -0.000680 9.278137 -0.000000 0.000000 -0.000001 
0.000006 104.270477 1.554256 0.000010 0.000003 -0.000113 -0.000005 10.181587 0.131522 0.000001 -0.000003 0.000084 -0.000000 9.893967 -1.470711 0.000001 0.000000 -0.000000 -0.000000 9.220802 -1.370642 0.000000 -0.000000 -0.000000 0.000001 16.740433 -2.049030 0.000000 -0.000000 -0.000000 0.000000 9.617859 1.685014 0.000000 0.000000 0.000000 0.000002 22.037384 7.501101 0.000000 -0.000000 0.000000 -4.569968 11.014880 -2.160881 0.000008 0.000001 -0.000038 -10.592854 -0.524804 -2.231831 76.464603 41.682268 -33.389892 -27.841522 -0.000004 0.000568 -40.525968 105.721828 51.973583 -28.328823 0.000022 0.000026 -0.000322 -0.000044 0.000011 -2.464412 -1.573772 2.682290 -50.510936 -162.110537 -16.657489 -3.215256 -1.872527 1.924635 148.315727 32.992129 22.444417 -2.654967 -1.527869 1.513070 148.898288 27.767417 -25.908861 -2.018818 -1.151999 1.108054 -0.000004 -0.000001 -0.000002 -9.108367 -0.517551 2.260160 108.868619 13.670404 -19.096456 -3.700068 0.000328 0.001560 108.141367 10.736103 -14.744953 -2.850058 0.000357 -0.000223 107.300387 8.350168 -11.328538 -2.772175 -0.000015 -0.000016 -0.000002 0.000002 -0.000002 -9.532593 0.000265 0.000307 106.668464 12.416356 -16.810456 -3.700051 0.000338 0.004027 108.389092 9.447486 -12.942107 -2.950059 0.000349 -0.001741 108.257972 9.092247 -12.540334 -2.946623 0.000012 -0.000150 0.000003 0.000002 -0.000001 -9.103690 -0.042758 -1.864810 107.005480 14.660356 -19.667262 -3.379328 0.000301 -0.000712 111.392196 8.565190 -12.552703 -2.889765 0.000339 0.000733 115.045138 7.185087 -11.338713 -2.638814 0.000001 0.000939 -0.000001 -0.000001 0.000002 -8.076756 -0.486411 -3.805980 98.382318 19.083617 -21.856481 -3.600034 0.000285 -0.003472 100.429858 8.443282 -9.705235 -2.100001 0.000327 -0.005425 102.411180 4.717228 -5.597016 -2.115782 -0.000028 -0.003685 -0.000001 -0.000001 -0.000004 4.570446 11.014691 -2.160851 -0.000018 0.000010 -0.000021 10.592510 -0.524547 -2.232386 56.987400 -64.564084 37.855258 27.841728 -0.000049 -0.000109 248.566293 -76.044540 262.168233 28.328838 -0.000014 0.000014 0.000016 -0.000086 -0.000000 2.466170 -1.576113 2.681894 41.104167 135.420726 -104.686323 3.217819 -1.871989 1.916541 90.045089 137.535790 -141.056862 2.656044 -1.528752 1.514608 112.758609 157.566768 -157.913427 2.020887 -1.154065 1.115153 0.000001 0.000003 0.000004 9.109209 -0.517864 2.260114 85.695904 -145.947359 143.461867 3.700048 0.000173 -0.000452 273.502494 -167.029326 193.799145 2.850018 0.000177 0.000204 254.777831 -173.560352 184.922741 2.774895 -0.000017 -0.000046 0.000002 -0.000002 -0.000000 9.533304 0.000197 0.000296 -97.608143 -36.281750 -41.041507 3.699998 0.000253 -0.000386 280.402843 -180.212219 179.742616 2.949941 0.000087 -0.000242 57.939320 26.423239 -14.809713 2.952869 -0.000013 0.000066 -0.000003 0.000001 0.000005 9.104425 -0.042888 -1.864830 -98.109083 -38.305958 -43.633902 3.149913 0.000326 -0.000162 286.112554 164.730065 159.787303 2.949812 0.000154 -0.000186 71.598865 49.487552 323.227610 2.644314 0.000045 0.000055 0.000000 0.000000 -0.000002 8.077708 -0.486668 -3.805991 -105.744558 -20.195654 333.174360 3.599827 0.000330 0.014546 292.531101 159.841521 150.536768 2.099838 0.000160 0.007507 258.601235 136.632224 143.953572 2.125511 -0.000030 0.007513 -0.000002 0.000002 0.000000 -8.207786 -6.751667 -1.599560 -0.077001 -0.000003 0.000080 -0.000002 -44.370110 0.345938 0.153719 -0.000000 -0.000000 0.000000 -44.423679 -3.043532 -0.076700 0.000000 -0.000002 -0.000006 -8.728667 10.710559 -0.000009 -0.000000 -0.000000 -0.000001 -0.000679 9.278123 0.000000 -0.000000 -0.000000 8.207792 -6.751710 -1.599556 -0.074518 -0.000003 0.000081 -0.000002 -44.370014 0.346960 0.148822 0.000002 0.000000 -0.000001 -44.423664 -3.044403 -0.074314 0.000000 -0.000002 -0.000004 -8.728671 10.710558 0.000007 -0.000000 -0.000000 0.000000 -0.000680 9.278137 -0.000000 0.000000 -0.000001 
0.000006 104.270477 1.554256 0.000010 0.000003 -0.000113 -0.000005 10.181587 0.131522 0.000001 -0.000003 0.000084 -0.000000 9.893967 -1.470711 0.000001 0.000000 -0.000000 -0.000000 9.220802 -1.370642 0.000000 -0.000000 -0.000000 0.000001 16.740433 -2.049030 0.000000 -0.000000 -0.000000 0.000000 9.617859 1.685014 0.000000 0.000000 0.000000 0.000002 22.037384 7.501101 0.000000 -0.000000 0.000000 -4.569968 11.014880 -2.160881 0.000008 0.000001 -0.000038 -10.592867 -0.524786 -2.231866 76.636690 36.697049 -29.373775 -27.841494 0.000003 0.000548 -40.591206 107.194935 53.273942 -28.328835 0.000034 0.000029 -0.000324 -0.000047 0.000009 -2.464407 -1.573740 2.682303 -51.586161 -163.214870 -19.500294 -3.215259 -1.872544 1.924621 148.965838 32.772805 19.290599 -2.654942 -1.527871 1.513050 148.734049 27.833490 -25.449606 -2.018834 -1.151986 1.108057 -0.000003 -0.000001 0.000002 -9.108369 -0.517529 2.260184 109.981707 13.320166 -18.993318 -3.700057 0.000326 0.001561 108.236423 10.041310 -13.817367 -2.850073 0.000383 -0.000224 107.348669 7.475190 -10.153263 -2.772161 -0.000015 -0.000014 -0.000002 -0.000000 0.000002 -9.532560 0.000286 0.000286 107.046973 11.947894 -16.296635 -3.700056 0.000341 0.004046 108.249284 8.631453 -11.788459 -2.950050 0.000352 -0.001752 107.855367 8.281913 -11.342064 -2.946632 0.000000 -0.000158 -0.000000 0.000002 -0.000000 -9.103679 -0.042739 -1.864820 107.209825 13.789556 -18.573485 -3.379321 0.000310 -0.000746 111.360504 7.864749 -11.525036 -2.889754 0.000338 0.000720 114.901458 6.843865 -10.775547 -2.638819 -0.000015 0.000941 -0.000004 -0.000002 0.000001 -8.076748 -0.486391 -3.805973 98.692969 18.018271 -20.745892 -3.600035 0.000275 -0.003459 100.306799 7.774031 -8.887624 -2.100000 0.000319 -0.005434 102.268709 4.271929 -5.032503 -2.115772 -0.000042 -0.003674 -0.000001 0.000001 -0.000002 4.570446 11.014691 -2.160851 -0.000018 0.000010 -0.000021 10.592509 -0.524544 -2.232389 58.958657 -63.466289 38.537952 27.841717 -0.000054 -0.000101 250.240619 -75.238864 264.771409 28.328831 -0.000013 0.000017 0.000021 -0.000088 0.000000 2.466165 -1.576122 2.681871 43.505361 133.628020 -105.637693 3.217809 -1.872003 1.916535 95.477643 140.173363 -145.293027 2.656055 -1.528746 1.514612 115.849229 160.549429 -159.737088 2.020887 -1.154074 1.115148 0.000002 0.000003 0.000004 9.109217 -0.517872 2.260113 88.198376 -145.099542 144.057760 3.700061 0.000196 -0.000461 275.347328 -167.153266 194.111763 2.850026 0.000180 0.000188 258.728522 -174.387488 184.604550 2.774894 -0.000044 -0.000036 -0.000000 -0.000002 0.000000 9.533285 0.000178 0.000277 -94.834506 -36.605200 -39.588654 3.700016 0.000248 -0.000384 280.677417 -180.729975 179.116875 2.949947 0.000117 -0.000251 61.778446 24.995294 -15.105964 2.952858 -0.000015 0.000073 0.000003 -0.000001 0.000003 9.104423 -0.042872 -1.864843 -93.635917 -37.849869 -40.138986 3.149916 0.000318 -0.000147 286.363768 164.331346 159.171521 2.949815 0.000183 -0.000193 76.933775 42.996912 325.246641 2.644325 0.000046 0.000056 -0.000001 0.000002 0.000003 8.077717 -0.486677 -3.806023 -98.908434 -19.053417 337.468336 3.599801 0.000376 0.014528 295.701921 159.542714 148.317216 2.099833 0.000185 0.007493 268.647377 141.398194 142.297402 2.125503 -0.000013 0.007509 -0.000003 0.000001 0.000000 -8.207786 -6.751667 -1.599560 -0.077001 -0.000003 0.000080 -0.000002 -44.370110 0.345938 0.153719 -0.000000 -0.000000 0.000000 -44.423679 -3.043532 -0.076700 0.000000 -0.000002 -0.000006 -8.728667 10.710559 -0.000009 -0.000000 -0.000000 -0.000001 -0.000679 9.278123 0.000000 -0.000000 -0.000000 8.207792 -6.751710 -1.599556 -0.074518 -0.000003 0.000081 -0.000002 -44.370014 0.346960 0.148822 0.000002 0.000000 -0.000001 -44.423664 -3.044403 -0.074314 0.000000 -0.000002 -0.000004 -8.728671 10.710558 0.000007 -0.000000 -0.000000 0.000000 -0.000680 9.278137 -0.000000 0.000000 -0.000001 
